<?xml version="1.0" ?><svg height="512" id="svg2" style="fill-rule:evenodd;stroke-width:0.50099999;stroke-linejoin:bevel;overflow:visible" version="1.1" viewBox="0 0 409.6 409.6" width="512" xmlns="http://www.w3.org/2000/svg" xmlns:cc="http://creativecommons.org/ns#" xmlns:dc="http://purl.org/dc/elements/1.1/" xmlns:rdf="http://www.w3.org/1999/02/22-rdf-syntax-ns#" xmlns:svg="http://www.w3.org/2000/svg"><defs id="defs4"><marker id="DefaultArrow2" markerHeight="1" markerUnits="strokeWidth" markerWidth="1" orient="auto" style="overflow:visible" viewBox="0 0 1 1"><g id="g7" transform="scale(0.00925926,0.00925926)"><path d="M -9,54 -9,-54 117,0 z" id="path9"/></g></marker><marker id="DefaultArrow3" markerHeight="1" markerUnits="strokeWidth" markerWidth="1" orient="auto" style="overflow:visible" viewBox="0 0 1 1"><g id="g12" transform="scale(0.00925926,0.00925926)"><path d="M -27,54 -9,0 -27,-54 135,0 z" id="path14"/></g></marker><marker id="DefaultArrow4" markerHeight="1" markerUnits="strokeWidth" markerWidth="1" orient="auto" style="overflow:visible" viewBox="0 0 1 1"><g id="g17" transform="scale(0.00925926,0.00925926)"><path d="m -9,0 0,-45 c 0,-6.708 11.808,-11.58 18,-9 l 108,45 c 3.916,1.631 9,4.758 9,9 0,4.242 -5.084,7.369 -9,9 L 9,54 C 2.808,56.58 -9,51.708 -9,45 z" id="path19"/></g></marker><marker id="DefaultArrow5" markerHeight="1" markerUnits="strokeWidth" markerWidth="1" orient="auto" style="overflow:visible" viewBox="0 0 1 1"><g id="g22" transform="scale(0.00925926,0.00925926)"><path d="M -54,0 C -54,29.807 -29.807,54 0,54 29.807,54 54,29.807 54,0 54,-29.807 29.807,-54 0,-54 -29.807,-54 -54,-29.807 -54,0 z" id="path24"/></g></marker><marker id="DefaultArrow6" markerHeight="1" markerUnits="strokeWidth" markerWidth="1" orient="auto" style="overflow:visible" viewBox="0 0 1 1"><g id="g27" transform="scale(0.00925926,0.00925926)"><path d="M -63,0 0,63 63,0 0,-63 z" id="path29"/></g></marker><marker id="DefaultArrow7" markerHeight="1" markerUnits="strokeWidth" markerWidth="1" orient="auto" style="overflow:visible" viewBox="0 0 1 1"><g id="g32" transform="scale(0.00925926,0.00925926)"><path d="m 18,-54 90,0 L 63,0 108,54 18,54 -36,0 z" id="path34"/></g></marker><marker id="DefaultArrow8" markerHeight="1" markerUnits="strokeWidth" markerWidth="1" orient="auto" style="overflow:visible" viewBox="0 0 1 1"><g id="g37" transform="scale(0.00925926,0.00925926)"><path d="m -36,0 54,-54 36,0 -36,36 9,0 36,-36 36,0 -36,36 9,0 36,-36 36,0 -54,54 54,54 -36,0 -36,-36 -9,0 36,36 -36,0 -36,-36 -9,0 36,36 -36,0 z" id="path39"/></g></marker><marker id="DefaultArrow9" markerHeight="1" markerUnits="strokeWidth" markerWidth="1" orient="auto" style="overflow:visible" viewBox="0 0 1 1"><g id="g42" transform="scale(0.00925926,0.00925926)"><path d="M 0,45 -45,0 0,-45 45,0 z M 0,63 -63,0 0,-63 63,0 z" id="path44"/></g></marker><filter color-interpolation-filters="sRGB" id="StainedFilter"><feBlend id="feBlend47" in="SourceGraphic" in2="BackgroundImage" mode="multiply" result="blend"/><feComposite id="feComposite49" in="blend" in2="SourceAlpha" operator="in" result="comp"/></filter><filter color-interpolation-filters="sRGB" id="BleachFilter"><feBlend id="feBlend52" in="SourceGraphic" in2="BackgroundImage" mode="screen" result="blend"/><feComposite id="feComposite54" in="blend" in2="SourceAlpha" operator="in" result="comp"/></filter><filter color-interpolation-filters="sRGB" id="InvertTransparencyBitmapFilter"><feComponentTransfer id="feComponentTransfer57"><feFuncR amplitude="1.055" exponent=".416666666" id="feFuncR59" offset="-0.055" type="gamma"/><feFuncG amplitude="1.055" exponent=".416666666" id="feFuncG61" offset="-0.055" type="gamma"/><feFuncB amplitude="1.055" exponent=".416666666" id="feFuncB63" offset="-0.055" type="gamma"/></feComponentTransfer><feComponentTransfer id="feComponentTransfer65"><feFuncR id="feFuncR67" intercept="1" slope="-1" type="linear"/><feFuncG id="feFuncG69" intercept="1" slope="-1" type="linear"/><feFuncB id="feFuncB71" intercept="1" slope="-1" type="linear"/><feFuncA id="feFuncA73" intercept="0" slope="1" type="linear"/></feComponentTransfer><feComponentTransfer id="feComponentTransfer75"><feFuncR amplitude="1" exponent="2.4" id="feFuncR77" offset="0" type="gamma"/><feFuncG amplitude="1" exponent="2.4" id="feFuncG79" offset="0" type="gamma"/><feFuncB amplitude="1" exponent="2.4" id="feFuncB81" offset="0" type="gamma"/></feComponentTransfer></filter></defs><g id="g3026" transform="matrix(11.369882,0,0,11.369882,-656.57658,-247.18986)"><path d="m 89.25,57.75 c 0.018,-0.012 0.036,-0.024 0.053,-0.037 -2.925,-0.012 -7.035,-2.993 -6.758,-6.676 -0.002,0.002 -0.003,0.003 -0.004,0.004 0.035,-0.694 0.235,-1.387 0.547,-2.065 C 75.907,43.87 69.421,37.74 63.994,30.807 62.496,28.893 61.05,26.915 59.719,24.88 c -0.677,-1.035 -1.315,-2.082 -1.972,-3.128 1.716,2.084 3.404,4.152 5.185,6.184 4.023,4.588 8.321,8.943 12.918,12.958 1.321,1.154 2.672,2.25 4.037,3.351 1.326,1.071 2.721,2.123 4.143,3.131 0.218,-0.306 0.451,-0.607 0.696,-0.9 0.538,-1.026 1.968,-2.11 2.953,-2.157 -1.003,1.381 -1.984,3.054 -0.844,4.313 l 5.953,4.265 c 0.661,0.532 0.857,1.023 0.984,1.688 -0.038,0.404 -0.187,0.929 -0.473,1.207 -0.964,0.895 -2.135,1.756 -3.417,1.93 -0.007,10e-4 -0.013,0.002 -0.021,0 -0.201,0.03 -0.405,0.039 -0.611,0.028 z m 0.549,-3.989 -4.514,-3.16 c -0.708,-0.417 -1.328,-0.401 -1.853,-0.18 -0.493,3.338 2.828,6.646 6.637,6.639 0.921,-1.019 0.998,-2.311 -0.27,-3.299 z" id="path88" style="font-size:16px;fill:#000000;stroke:none;stroke-width:0.271;marker-start:none;marker-end:none;font-family:Times New Roman"/></g></svg>